<svg xmlns="http://www.w3.org/2000/svg" xmlns:xlink="http://www.w3.org/1999/xlink" width="500" zoomAndPan="magnify" viewBox="0 0 375 374.999991" height="500" preserveAspectRatio="xMidYMid meet" version="1.0"><defs><g/><clipPath id="db7a548ddc"><path d="M 97.117188 261.605469 L 277.878906 261.605469 L 277.878906 276.347656 L 97.117188 276.347656 Z M 97.117188 261.605469 " clip-rule="nonzero"/></clipPath><clipPath id="dbe3612fd6"><path d="M 207.710938 119.492188 L 232.453125 119.492188 L 232.453125 133.742188 L 207.710938 133.742188 Z M 207.710938 119.492188 " clip-rule="nonzero"/></clipPath></defs><g fill="#1c2120" fill-opacity="1"><g transform="translate(121.262667, 253.863153)"><g><path d="M 13.328125 0 L 6.765625 -8.78125 L 4.34375 -6.625 L 4.34375 0 L 2.25 0 L 2.25 -16.421875 L 4.34375 -16.421875 L 4.34375 -7.34375 L 14.4375 -16.421875 L 15.25 -16.421875 L 8.21875 -10.09375 L 15.765625 0 Z M 13.328125 0 "/></g></g></g><g fill="#1c2120" fill-opacity="1"><g transform="translate(137.287861, 253.863153)"><g><path d="M 2.25 0 L 2.25 -16.421875 L 4.34375 -16.421875 L 4.34375 0 Z M 2.25 0 "/></g></g></g><g fill="#1c2120" fill-opacity="1"><g transform="translate(143.857482, 253.863153)"><g><path d="M 16.5625 -16.421875 L 18.75 -16.421875 L 18.75 0 L 16.65625 0 L 16.65625 -15.390625 L 9.921875 -4.265625 L 9.546875 -4.265625 L 2.8125 -15.390625 L 2.8125 0 L 2.25 0 L 2.25 -16.421875 L 4.53125 -16.421875 L 10.5625 -6.5 Z M 16.5625 -16.421875 "/></g></g></g><g fill="#1c2120" fill-opacity="1"><g transform="translate(164.856824, 253.863153)"><g/></g></g><g fill="#1c2120" fill-opacity="1"><g transform="translate(171.168359, 253.863153)"><g><path d="M 7.9375 -9.109375 C 8.625 -8.859375 9.28125 -8.59375 9.90625 -8.3125 C 10.53125 -8.03125 11.097656 -7.707031 11.609375 -7.34375 C 12.117188 -6.988281 12.515625 -6.5625 12.796875 -6.0625 C 13.085938 -5.570312 13.234375 -4.972656 13.234375 -4.265625 C 13.234375 -3.359375 12.976562 -2.566406 12.46875 -1.890625 C 11.957031 -1.210938 11.253906 -0.6875 10.359375 -0.3125 C 9.460938 0.0507812 8.4375 0.234375 7.28125 0.234375 C 6.144531 0.234375 5.125 0.0664062 4.21875 -0.265625 C 3.3125 -0.609375 2.59375 -1.0625 2.0625 -1.625 C 1.53125 -2.195312 1.265625 -2.84375 1.265625 -3.5625 C 1.265625 -3.90625 1.378906 -4.179688 1.609375 -4.390625 C 1.847656 -4.609375 2.140625 -4.71875 2.484375 -4.71875 C 2.796875 -4.71875 3.0625 -4.609375 3.28125 -4.390625 C 3.5 -4.179688 3.609375 -3.90625 3.609375 -3.5625 C 3.609375 -3.21875 3.5 -2.9375 3.28125 -2.71875 C 3.0625 -2.5 2.796875 -2.390625 2.484375 -2.390625 L 2.328125 -2.390625 C 2.671875 -1.765625 3.257812 -1.253906 4.09375 -0.859375 C 4.925781 -0.472656 5.894531 -0.28125 7 -0.28125 C 7.882812 -0.28125 8.671875 -0.410156 9.359375 -0.671875 C 10.046875 -0.941406 10.582031 -1.3125 10.96875 -1.78125 C 11.363281 -2.25 11.5625 -2.789062 11.5625 -3.40625 C 11.5625 -4.0625 11.347656 -4.613281 10.921875 -5.0625 C 10.492188 -5.519531 9.921875 -5.921875 9.203125 -6.265625 C 8.492188 -6.609375 7.71875 -6.945312 6.875 -7.28125 C 6.28125 -7.507812 5.675781 -7.765625 5.0625 -8.046875 C 4.457031 -8.328125 3.894531 -8.660156 3.375 -9.046875 C 2.863281 -9.429688 2.445312 -9.878906 2.125 -10.390625 C 1.800781 -10.910156 1.640625 -11.523438 1.640625 -12.234375 C 1.640625 -13.109375 1.882812 -13.875 2.375 -14.53125 C 2.875 -15.195312 3.550781 -15.71875 4.40625 -16.09375 C 5.269531 -16.46875 6.242188 -16.65625 7.328125 -16.65625 C 8.328125 -16.65625 9.21875 -16.5 10 -16.1875 C 10.789062 -15.875 11.421875 -15.453125 11.890625 -14.921875 C 12.367188 -14.390625 12.609375 -13.789062 12.609375 -13.125 C 12.609375 -12.78125 12.5 -12.5 12.28125 -12.28125 C 12.0625 -12.070312 11.789062 -11.96875 11.46875 -11.96875 C 11.125 -11.96875 10.832031 -12.070312 10.59375 -12.28125 C 10.363281 -12.5 10.25 -12.78125 10.25 -13.125 C 10.25 -13.46875 10.363281 -13.75 10.59375 -13.96875 C 10.832031 -14.1875 11.125 -14.296875 11.46875 -14.296875 L 11.5625 -14.296875 C 11.25 -14.835938 10.734375 -15.28125 10.015625 -15.625 C 9.296875 -15.96875 8.46875 -16.140625 7.53125 -16.140625 C 6.71875 -16.140625 5.988281 -16.003906 5.34375 -15.734375 C 4.707031 -15.460938 4.203125 -15.085938 3.828125 -14.609375 C 3.453125 -14.128906 3.265625 -13.59375 3.265625 -13 C 3.265625 -12.332031 3.488281 -11.757812 3.9375 -11.28125 C 4.394531 -10.8125 4.984375 -10.410156 5.703125 -10.078125 C 6.421875 -9.742188 7.164062 -9.421875 7.9375 -9.109375 Z M 7.9375 -9.109375 "/></g></g></g><g fill="#1c2120" fill-opacity="1"><g transform="translate(185.504222, 253.863153)"><g><path d="M 13.828125 0 L 11.703125 -4.859375 L 3.5 -4.859375 L 1.359375 0 L 0.703125 0 L 7.90625 -16.421875 L 8.828125 -16.421875 L 16 0 Z M 3.6875 -5.328125 L 11.5 -5.328125 L 7.609375 -14.265625 Z M 3.6875 -5.328125 "/></g></g></g><g fill="#1c2120" fill-opacity="1"><g transform="translate(202.20984, 253.863153)"><g><path d="M 4.34375 -0.46875 L 13.234375 -0.46875 L 13.234375 0 L 2.25 0 L 2.25 -16.421875 L 4.34375 -16.421875 Z M 4.34375 -0.46875 "/></g></g></g><g fill="#1c2120" fill-opacity="1"><g transform="translate(216.264144, 253.863153)"><g><path d="M 9.71875 0.234375 C 8.5 0.234375 7.367188 0.0234375 6.328125 -0.390625 C 5.285156 -0.816406 4.378906 -1.410156 3.609375 -2.171875 C 2.847656 -2.941406 2.25 -3.835938 1.8125 -4.859375 C 1.382812 -5.890625 1.171875 -7.007812 1.171875 -8.21875 C 1.171875 -9.414062 1.382812 -10.523438 1.8125 -11.546875 C 2.25 -12.578125 2.847656 -13.472656 3.609375 -14.234375 C 4.378906 -15.003906 5.285156 -15.597656 6.328125 -16.015625 C 7.367188 -16.441406 8.5 -16.65625 9.71875 -16.65625 C 10.9375 -16.65625 12.066406 -16.441406 13.109375 -16.015625 C 14.148438 -15.597656 15.054688 -15.003906 15.828125 -14.234375 C 16.597656 -13.472656 17.195312 -12.578125 17.625 -11.546875 C 18.0625 -10.523438 18.28125 -9.414062 18.28125 -8.21875 C 18.28125 -7.007812 18.0625 -5.890625 17.625 -4.859375 C 17.195312 -3.835938 16.597656 -2.941406 15.828125 -2.171875 C 15.054688 -1.410156 14.148438 -0.816406 13.109375 -0.390625 C 12.066406 0.0234375 10.9375 0.234375 9.71875 0.234375 Z M 9.71875 -0.234375 C 11 -0.234375 12.113281 -0.566406 13.0625 -1.234375 C 14.019531 -1.898438 14.765625 -2.828125 15.296875 -4.015625 C 15.828125 -5.210938 16.09375 -6.613281 16.09375 -8.21875 C 16.09375 -9.820312 15.828125 -11.21875 15.296875 -12.40625 C 14.765625 -13.601562 14.019531 -14.53125 13.0625 -15.1875 C 12.113281 -15.851562 11 -16.1875 9.71875 -16.1875 C 8.445312 -16.1875 7.332031 -15.851562 6.375 -15.1875 C 5.425781 -14.53125 4.6875 -13.601562 4.15625 -12.40625 C 3.625 -11.21875 3.359375 -9.820312 3.359375 -8.21875 C 3.359375 -6.613281 3.625 -5.210938 4.15625 -4.015625 C 4.6875 -2.828125 5.425781 -1.898438 6.375 -1.234375 C 7.332031 -0.566406 8.445312 -0.234375 9.71875 -0.234375 Z M 9.71875 -0.234375 "/></g></g></g><g fill="#1c2120" fill-opacity="1"><g transform="translate(235.714934, 253.863153)"><g><path d="M 15.203125 -16.421875 L 15.765625 -16.421875 L 15.765625 0 L 14.96875 0 L 2.8125 -14.734375 L 2.8125 0 L 2.25 0 L 2.25 -16.421875 L 4.015625 -16.421875 L 15.203125 -2.8125 Z M 15.203125 -16.421875 "/></g></g></g><g fill="#1f2122" fill-opacity="1"><g transform="translate(115.550058, 221.496328)"><g><path d="M 80.859375 -113.109375 C 80.859375 -115.441406 80.484375 -117.753906 79.734375 -120.046875 C 78.984375 -122.335938 77.898438 -123.984375 76.484375 -124.984375 L 88.859375 -124.984375 C 90.023438 -123.898438 90.941406 -122.273438 91.609375 -120.109375 C 92.273438 -117.941406 92.609375 -115.691406 92.609375 -113.359375 C 92.609375 -107.859375 91.523438 -103.003906 89.359375 -98.796875 C 87.191406 -94.585938 84.296875 -90.921875 80.671875 -87.796875 C 77.046875 -84.671875 73.085938 -81.960938 68.796875 -79.671875 C 64.503906 -77.378906 60.210938 -75.398438 55.921875 -73.734375 C 51.640625 -72.066406 47.6875 -70.609375 44.0625 -69.359375 C 40.4375 -68.109375 37.539062 -66.941406 35.375 -65.859375 C 33.207031 -64.773438 32.125 -63.648438 32.125 -62.484375 C 32.125 -61.078125 32.914062 -59.976562 34.5 -59.1875 C 36.082031 -58.394531 38.1875 -57.644531 40.8125 -56.9375 C 43.4375 -56.226562 46.269531 -55.3125 49.3125 -54.1875 C 52.351562 -53.0625 55.390625 -51.457031 58.421875 -49.375 C 61.460938 -47.289062 64.191406 -44.457031 66.609375 -40.875 C 69.523438 -36.539062 72.460938 -32.039062 75.421875 -27.375 C 78.378906 -22.707031 81.421875 -18.414062 84.546875 -14.5 C 87.671875 -10.582031 90.859375 -7.394531 94.109375 -4.9375 C 97.359375 -2.476562 100.773438 -1.25 104.359375 -1.25 L 104.359375 0 L 85.234375 0 C 83.816406 0 82.421875 -0.582031 81.046875 -1.75 C 79.671875 -2.914062 77.984375 -4.894531 75.984375 -7.6875 C 73.984375 -10.476562 71.421875 -14.289062 68.296875 -19.125 C 65.171875 -23.957031 61.15625 -30.082031 56.25 -37.5 C 53.5 -41.664062 50.851562 -44.976562 48.3125 -47.4375 C 45.769531 -49.894531 43.4375 -51.832031 41.3125 -53.25 C 39.1875 -54.664062 37.351562 -55.789062 35.8125 -56.625 C 34.269531 -57.457031 33.0625 -58.289062 32.1875 -59.125 C 31.3125 -59.957031 30.875 -61.078125 30.875 -62.484375 C 30.875 -64.066406 31.769531 -65.566406 33.5625 -66.984375 C 35.351562 -68.398438 37.75 -69.835938 40.75 -71.296875 C 43.75 -72.753906 47.019531 -74.359375 50.5625 -76.109375 C 54.101562 -77.859375 57.640625 -79.835938 61.171875 -82.046875 C 64.710938 -84.253906 67.984375 -86.816406 70.984375 -89.734375 C 73.984375 -92.648438 76.378906 -96.023438 78.171875 -99.859375 C 79.960938 -103.691406 80.859375 -108.109375 80.859375 -113.109375 Z M 3.75 0 L 3.75 -1.25 C 7.332031 -1.25 9.9375 -2.332031 11.5625 -4.5 C 13.1875 -6.664062 14.207031 -10.207031 14.625 -15.125 C 15.039062 -20.039062 15.25 -26.582031 15.25 -34.75 L 15.25 -90.234375 C 15.25 -98.484375 15.039062 -105.046875 14.625 -109.921875 C 14.207031 -114.796875 13.1875 -118.316406 11.5625 -120.484375 C 9.9375 -122.648438 7.332031 -123.734375 3.75 -123.734375 L 3.75 -124.984375 L 37.375 -124.984375 L 37.375 -123.734375 C 33.789062 -123.734375 31.1875 -122.648438 29.5625 -120.484375 C 27.9375 -118.316406 26.914062 -114.796875 26.5 -109.921875 C 26.082031 -105.046875 25.875 -98.484375 25.875 -90.234375 L 25.875 -34.75 C 25.875 -26.582031 26.082031 -20.039062 26.5 -15.125 C 26.914062 -10.207031 27.9375 -6.664062 29.5625 -4.5 C 31.1875 -2.332031 33.789062 -1.25 37.375 -1.25 L 37.375 0 Z M 3.75 0 "/></g></g></g><g clip-path="url(#db7a548ddc)"><path fill="#1c2120" d="M 277.878906 276.347656 L 97.085938 276.347656 L 97.085938 261.605469 L 277.878906 261.605469 Z M 277.878906 276.347656 " fill-opacity="1" fill-rule="nonzero"/></g><g clip-path="url(#dbe3612fd6)"><path fill="#1c2120" d="M 208.816406 121.378906 C 209.726562 122.304688 210.613281 123.25 211.550781 124.140625 C 212.054688 124.621094 212.90625 124.566406 213.40625 124.070312 C 213.585938 123.890625 213.742188 123.640625 213.8125 123.394531 C 214.054688 122.539062 214.257812 121.675781 214.476562 120.820312 C 213.964844 120.441406 213.859375 120.058594 214.160156 119.71875 C 214.40625 119.433594 214.820312 119.414062 215.09375 119.679688 C 215.410156 119.980469 215.355469 120.367188 214.933594 120.738281 C 215.347656 121.648438 215.742188 122.570312 216.175781 123.472656 C 216.679688 124.527344 218.023438 124.613281 218.6875 123.652344 C 218.742188 123.574219 218.789062 123.496094 218.839844 123.417969 C 219.351562 122.570312 219.867188 121.726562 220.316406 120.984375 C 220.234375 120.65625 220.125 120.417969 220.132812 120.183594 C 220.144531 119.890625 220.355469 119.703125 220.664062 119.675781 C 220.988281 119.644531 221.242188 119.773438 221.351562 120.09375 C 221.449219 120.390625 221.386719 120.683594 221.109375 120.824219 C 220.84375 120.953125 220.859375 121.121094 220.894531 121.347656 C 221.023438 122.234375 221.152344 123.125 221.269531 124.011719 C 221.347656 124.613281 221.609375 125.078125 222.195312 125.300781 C 222.8125 125.539062 223.335938 125.367188 223.804688 124.933594 C 224.488281 124.296875 225.183594 123.671875 225.816406 123.097656 C 225.828125 122.789062 225.792969 122.523438 225.863281 122.292969 C 225.902344 122.160156 226.09375 122.03125 226.246094 121.976562 C 226.613281 121.847656 226.984375 122.105469 227.042969 122.496094 C 227.109375 122.914062 226.851562 123.183594 226.292969 123.246094 C 226.148438 124.171875 225.953125 125.101562 225.867188 126.042969 C 225.773438 127.085938 226.792969 127.828125 227.773438 127.457031 C 228.941406 127.011719 230.09375 126.523438 231.242188 126.054688 C 231.25 125.402344 231.5 125.066406 231.941406 125.109375 C 232.292969 125.140625 232.566406 125.46875 232.523438 125.808594 C 232.460938 126.296875 232.144531 126.460938 231.503906 126.324219 C 229.726562 128.84375 227.945312 131.367188 226.164062 133.894531 C 225.132812 132.953125 223.90625 132.421875 222.640625 132.019531 C 221.109375 131.523438 219.550781 131.085938 217.976562 130.753906 C 215.925781 130.320312 213.847656 130.105469 211.742188 130.300781 C 211.511719 130.320312 211.28125 130.359375 211.054688 130.40625 C 210.828125 130.453125 210.605469 130.527344 210.351562 130.597656 C 210.191406 129.820312 210.03125 129.046875 209.871094 128.273438 C 209.425781 126.125 208.980469 123.976562 208.542969 121.828125 C 208.511719 121.675781 208.5 121.554688 208.289062 121.523438 C 207.824219 121.453125 207.621094 121.113281 207.746094 120.695312 C 207.855469 120.332031 208.21875 120.164062 208.589844 120.304688 C 208.957031 120.441406 209.085938 120.828125 208.894531 121.234375 C 208.875 121.273438 208.851562 121.3125 208.816406 121.378906 " fill-opacity="1" fill-rule="nonzero"/></g><g fill="#ffffff" fill-opacity="1"><g transform="translate(119.245089, 272.781462)"><g><path d="M 7.375 -2.328125 C 7.375 -1.585938 7.101562 -1.015625 6.5625 -0.609375 C 6.03125 -0.203125 5.289062 0 4.34375 0 L 0.984375 0 L 0.984375 -8.25 L 3.984375 -8.25 C 5.921875 -8.25 6.890625 -7.582031 6.890625 -6.25 C 6.890625 -5.757812 6.753906 -5.347656 6.484375 -5.015625 C 6.210938 -4.691406 5.828125 -4.472656 5.328125 -4.359375 C 5.984375 -4.273438 6.488281 -4.050781 6.84375 -3.6875 C 7.195312 -3.332031 7.375 -2.878906 7.375 -2.328125 Z M 5.765625 -6.125 C 5.765625 -6.5625 5.613281 -6.875 5.3125 -7.0625 C 5.007812 -7.257812 4.566406 -7.359375 3.984375 -7.359375 L 2.109375 -7.359375 L 2.109375 -4.75 L 3.984375 -4.75 C 4.578125 -4.75 5.019531 -4.859375 5.3125 -5.078125 C 5.613281 -5.304688 5.765625 -5.65625 5.765625 -6.125 Z M 6.234375 -2.421875 C 6.234375 -3.390625 5.550781 -3.875 4.1875 -3.875 L 2.109375 -3.875 L 2.109375 -0.890625 L 4.28125 -0.890625 C 4.957031 -0.890625 5.453125 -1.015625 5.765625 -1.265625 C 6.078125 -1.523438 6.234375 -1.910156 6.234375 -2.421875 Z M 6.234375 -2.421875 "/></g></g></g><g fill="#ffffff" fill-opacity="1"><g transform="translate(131.008998, 272.781462)"><g><path d="M 0.984375 0 L 0.984375 -8.25 L 7.25 -8.25 L 7.25 -7.34375 L 2.109375 -7.34375 L 2.109375 -4.6875 L 6.890625 -4.6875 L 6.890625 -3.796875 L 2.109375 -3.796875 L 2.109375 -0.921875 L 7.484375 -0.921875 L 7.484375 0 Z M 0.984375 0 "/></g></g></g><g fill="#ffffff" fill-opacity="1"><g transform="translate(142.772908, 272.781462)"><g><path d="M 6.84375 0 L 5.890625 -2.421875 L 2.140625 -2.421875 L 1.1875 0 L 0.03125 0 L 3.390625 -8.25 L 4.671875 -8.25 L 7.984375 0 Z M 4.015625 -7.40625 L 3.96875 -7.25 C 3.863281 -6.925781 3.71875 -6.507812 3.53125 -6 L 2.46875 -3.28125 L 5.5625 -3.28125 L 4.5 -6.015625 C 4.394531 -6.285156 4.285156 -6.585938 4.171875 -6.921875 Z M 4.015625 -7.40625 "/></g></g></g><g fill="#ffffff" fill-opacity="1"><g transform="translate(154.536819, 272.781462)"><g><path d="M 4.28125 0.125 C 3.601562 0.125 3.015625 0 2.515625 -0.25 C 2.015625 -0.5 1.625 -0.859375 1.34375 -1.328125 C 1.0625 -1.796875 0.921875 -2.351562 0.921875 -3 L 0.921875 -8.25 L 2.046875 -8.25 L 2.046875 -3.09375 C 2.046875 -2.34375 2.234375 -1.769531 2.609375 -1.375 C 2.992188 -0.988281 3.550781 -0.796875 4.28125 -0.796875 C 5.019531 -0.796875 5.59375 -0.992188 6 -1.390625 C 6.414062 -1.796875 6.625 -2.390625 6.625 -3.171875 L 6.625 -8.25 L 7.734375 -8.25 L 7.734375 -3.109375 C 7.734375 -2.441406 7.59375 -1.863281 7.3125 -1.375 C 7.03125 -0.894531 6.628906 -0.523438 6.109375 -0.265625 C 5.597656 -0.00390625 4.988281 0.125 4.28125 0.125 Z M 4.28125 0.125 "/></g></g></g><g fill="#ffffff" fill-opacity="1"><g transform="translate(166.962176, 272.781462)"><g><path d="M 4.21875 -7.34375 L 4.21875 0 L 3.109375 0 L 3.109375 -7.34375 L 0.265625 -7.34375 L 0.265625 -8.25 L 7.0625 -8.25 L 7.0625 -7.34375 Z M 4.21875 -7.34375 "/></g></g></g><g fill="#ffffff" fill-opacity="1"><g transform="translate(178.052932, 272.781462)"><g><path d="M 4.546875 -3.421875 L 4.546875 0 L 3.4375 0 L 3.4375 -3.421875 L 0.265625 -8.25 L 1.5 -8.25 L 4.015625 -4.328125 L 6.515625 -8.25 L 7.734375 -8.25 Z M 4.546875 -3.421875 "/></g></g></g><g fill="#ffffff" fill-opacity="1"><g transform="translate(189.816841, 272.781462)"><g/></g></g><g fill="#ffffff" fill-opacity="1"><g transform="translate(196.915487, 272.781462)"><g><path d="M 6.984375 0.078125 C 6.296875 0.078125 5.71875 -0.171875 5.25 -0.671875 C 4.957031 -0.421875 4.625 -0.222656 4.25 -0.078125 C 3.875 0.0546875 3.476562 0.125 3.0625 0.125 C 2.226562 0.125 1.578125 -0.078125 1.109375 -0.484375 C 0.648438 -0.890625 0.421875 -1.453125 0.421875 -2.171875 C 0.421875 -3.253906 1.09375 -4.09375 2.4375 -4.6875 C 2.300781 -4.925781 2.1875 -5.210938 2.09375 -5.546875 C 2 -5.878906 1.953125 -6.179688 1.953125 -6.453125 C 1.953125 -7.046875 2.128906 -7.5 2.484375 -7.8125 C 2.847656 -8.132812 3.359375 -8.296875 4.015625 -8.296875 C 4.609375 -8.296875 5.082031 -8.144531 5.4375 -7.84375 C 5.800781 -7.550781 5.984375 -7.148438 5.984375 -6.640625 C 5.984375 -6.179688 5.800781 -5.769531 5.4375 -5.40625 C 5.082031 -5.050781 4.46875 -4.695312 3.59375 -4.34375 C 4.019531 -3.539062 4.585938 -2.734375 5.296875 -1.921875 C 5.742188 -2.578125 6.082031 -3.378906 6.3125 -4.328125 L 7.15625 -4.078125 C 6.90625 -3.109375 6.488281 -2.191406 5.90625 -1.328125 C 6.28125 -0.941406 6.6875 -0.75 7.125 -0.75 C 7.40625 -0.75 7.632812 -0.78125 7.8125 -0.84375 L 7.8125 -0.0625 C 7.59375 0.03125 7.316406 0.078125 6.984375 0.078125 Z M 5.09375 -6.640625 C 5.09375 -6.921875 4.992188 -7.148438 4.796875 -7.328125 C 4.597656 -7.503906 4.332031 -7.59375 4 -7.59375 C 3.625 -7.59375 3.335938 -7.488281 3.140625 -7.28125 C 2.953125 -7.082031 2.859375 -6.804688 2.859375 -6.453125 C 2.859375 -6.015625 2.984375 -5.539062 3.234375 -5.03125 C 3.742188 -5.238281 4.117188 -5.414062 4.359375 -5.5625 C 4.597656 -5.71875 4.78125 -5.882812 4.90625 -6.0625 C 5.03125 -6.238281 5.09375 -6.429688 5.09375 -6.640625 Z M 4.65625 -1.265625 C 3.882812 -2.179688 3.265625 -3.078125 2.796875 -3.953125 C 1.867188 -3.554688 1.40625 -2.96875 1.40625 -2.1875 C 1.40625 -1.71875 1.554688 -1.34375 1.859375 -1.0625 C 2.160156 -0.789062 2.570312 -0.65625 3.09375 -0.65625 C 3.375 -0.65625 3.648438 -0.707031 3.921875 -0.8125 C 4.203125 -0.914062 4.445312 -1.066406 4.65625 -1.265625 Z M 4.65625 -1.265625 "/></g></g></g><g fill="#ffffff" fill-opacity="1"><g transform="translate(208.679395, 272.781462)"><g/></g></g><g fill="#ffffff" fill-opacity="1"><g transform="translate(215.778041, 272.781462)"><g><path d="M 6.5625 0 L 6.5625 -3.828125 L 2.109375 -3.828125 L 2.109375 0 L 0.984375 0 L 0.984375 -8.25 L 2.109375 -8.25 L 2.109375 -4.765625 L 6.5625 -4.765625 L 6.5625 -8.25 L 7.6875 -8.25 L 7.6875 0 Z M 6.5625 0 "/></g></g></g><g fill="#ffffff" fill-opacity="1"><g transform="translate(228.203399, 272.781462)"><g><path d="M 6.84375 0 L 5.890625 -2.421875 L 2.140625 -2.421875 L 1.1875 0 L 0.03125 0 L 3.390625 -8.25 L 4.671875 -8.25 L 7.984375 0 Z M 4.015625 -7.40625 L 3.96875 -7.25 C 3.863281 -6.925781 3.71875 -6.507812 3.53125 -6 L 2.46875 -3.28125 L 5.5625 -3.28125 L 4.5 -6.015625 C 4.394531 -6.285156 4.285156 -6.585938 4.171875 -6.921875 Z M 4.015625 -7.40625 "/></g></g></g><g fill="#ffffff" fill-opacity="1"><g transform="translate(239.967314, 272.781462)"><g><path d="M 1.109375 0 L 1.109375 -8.25 L 2.234375 -8.25 L 2.234375 0 Z M 1.109375 0 "/></g></g></g><g fill="#ffffff" fill-opacity="1"><g transform="translate(247.06596, 272.781462)"><g><path d="M 6.828125 0 L 4.671875 -3.421875 L 2.109375 -3.421875 L 2.109375 0 L 0.984375 0 L 0.984375 -8.25 L 4.875 -8.25 C 5.800781 -8.25 6.515625 -8.039062 7.015625 -7.625 C 7.523438 -7.21875 7.78125 -6.640625 7.78125 -5.890625 C 7.78125 -5.273438 7.597656 -4.757812 7.234375 -4.34375 C 6.878906 -3.925781 6.390625 -3.664062 5.765625 -3.5625 L 8.109375 0 Z M 6.65625 -5.890625 C 6.65625 -6.367188 6.488281 -6.734375 6.15625 -6.984375 C 5.832031 -7.234375 5.367188 -7.359375 4.765625 -7.359375 L 2.109375 -7.359375 L 2.109375 -4.3125 L 4.8125 -4.3125 C 5.394531 -4.3125 5.847656 -4.445312 6.171875 -4.71875 C 6.492188 -5 6.65625 -5.390625 6.65625 -5.890625 Z M 6.65625 -5.890625 "/></g></g></g><g fill="#cb996c" fill-opacity="0.4"><g transform="translate(166.052365, 224.953903)"><g><path d="M 5.484375 -69.375 C 5.484375 -73.632812 6.742188 -77.554688 9.265625 -81.140625 C 11.785156 -84.734375 15.476562 -87.625 20.34375 -89.8125 C 25.21875 -92.007812 31.15625 -93.109375 38.15625 -93.109375 C 43.75 -93.109375 48.597656 -92.710938 52.703125 -91.921875 C 56.816406 -91.128906 60.640625 -90.125 64.171875 -88.90625 L 64.171875 -76.671875 L 63.265625 -76.671875 C 63.265625 -76.671875 63.019531 -77.1875 62.53125 -78.21875 C 62.039062 -79.257812 61.21875 -80.539062 60.0625 -82.0625 C 58.90625 -83.582031 57.367188 -85.101562 55.453125 -86.625 C 53.535156 -88.144531 51.144531 -89.421875 48.28125 -90.453125 C 45.425781 -91.492188 42.050781 -92.015625 38.15625 -92.015625 C 32.5 -92.015625 27.707031 -91.007812 23.78125 -89 C 19.851562 -86.988281 16.882812 -84.429688 14.875 -81.328125 C 12.863281 -78.222656 11.859375 -74.96875 11.859375 -71.5625 C 11.859375 -68.457031 12.664062 -65.8125 14.28125 -63.625 C 15.894531 -61.4375 18.085938 -59.550781 20.859375 -57.96875 C 23.628906 -56.382812 26.71875 -54.984375 30.125 -53.765625 C 33.53125 -52.546875 37.054688 -51.328125 40.703125 -50.109375 C 44.359375 -48.890625 47.890625 -47.566406 51.296875 -46.140625 C 54.703125 -44.710938 57.789062 -42.992188 60.5625 -40.984375 C 63.332031 -38.972656 65.523438 -36.550781 67.140625 -33.71875 C 68.753906 -30.894531 69.5625 -27.472656 69.5625 -23.453125 C 69.5625 -20.296875 68.769531 -17.207031 67.1875 -14.1875 C 65.601562 -11.175781 63.316406 -8.46875 60.328125 -6.0625 C 57.347656 -3.664062 53.757812 -1.75 49.5625 -0.3125 C 45.363281 1.113281 40.617188 1.828125 35.328125 1.828125 C 31.304688 1.828125 27.46875 1.25 23.8125 0.09375 C 20.164062 -1.0625 16.820312 -2.503906 13.78125 -4.234375 C 10.738281 -5.972656 8.09375 -7.664062 5.84375 -9.3125 L 5.84375 -21.546875 L 6.75 -21.546875 C 6.75 -21.546875 7.21875 -20.8125 8.15625 -19.34375 C 9.101562 -17.882812 10.503906 -16.078125 12.359375 -13.921875 C 14.222656 -11.765625 16.507812 -9.601562 19.21875 -7.4375 C 21.925781 -5.28125 25.054688 -3.46875 28.609375 -2 C 32.171875 -0.539062 36.113281 0.1875 40.4375 0.1875 C 43.78125 0.1875 46.894531 -0.359375 49.78125 -1.453125 C 52.675781 -2.554688 55.203125 -4.050781 57.359375 -5.9375 C 59.523438 -7.820312 61.21875 -9.953125 62.4375 -12.328125 C 63.65625 -14.703125 64.265625 -17.164062 64.265625 -19.71875 C 64.265625 -23.125 63.441406 -26.054688 61.796875 -28.515625 C 60.148438 -30.984375 57.925781 -33.097656 55.125 -34.859375 C 52.332031 -36.628906 49.1875 -38.210938 45.6875 -39.609375 C 42.1875 -41.015625 38.578125 -42.351562 34.859375 -43.625 C 31.148438 -44.90625 27.546875 -46.273438 24.046875 -47.734375 C 20.546875 -49.203125 17.394531 -50.894531 14.59375 -52.8125 C 11.800781 -54.726562 9.582031 -57.039062 7.9375 -59.75 C 6.300781 -62.457031 5.484375 -65.664062 5.484375 -69.375 Z M 5.484375 -69.375 "/></g></g></g><g fill="#cb996c" fill-opacity="1"><g transform="translate(166.052365, 224.953903)"><g><path d="M 5.484375 -69.375 C 5.484375 -73.632812 6.742188 -77.554688 9.265625 -81.140625 C 11.785156 -84.734375 15.476562 -87.625 20.34375 -89.8125 C 25.21875 -92.007812 31.15625 -93.109375 38.15625 -93.109375 C 43.75 -93.109375 48.597656 -92.710938 52.703125 -91.921875 C 56.816406 -91.128906 60.640625 -90.125 64.171875 -88.90625 L 64.171875 -76.671875 L 63.265625 -76.671875 C 63.265625 -76.671875 63.019531 -77.1875 62.53125 -78.21875 C 62.039062 -79.257812 61.21875 -80.539062 60.0625 -82.0625 C 58.90625 -83.582031 57.367188 -85.101562 55.453125 -86.625 C 53.535156 -88.144531 51.144531 -89.421875 48.28125 -90.453125 C 45.425781 -91.492188 42.050781 -92.015625 38.15625 -92.015625 C 32.5 -92.015625 27.707031 -91.007812 23.78125 -89 C 19.851562 -86.988281 16.882812 -84.429688 14.875 -81.328125 C 12.863281 -78.222656 11.859375 -74.96875 11.859375 -71.5625 C 11.859375 -68.457031 12.664062 -65.8125 14.28125 -63.625 C 15.894531 -61.4375 18.085938 -59.550781 20.859375 -57.96875 C 23.628906 -56.382812 26.71875 -54.984375 30.125 -53.765625 C 33.53125 -52.546875 37.054688 -51.328125 40.703125 -50.109375 C 44.359375 -48.890625 47.890625 -47.566406 51.296875 -46.140625 C 54.703125 -44.710938 57.789062 -42.992188 60.5625 -40.984375 C 63.332031 -38.972656 65.523438 -36.550781 67.140625 -33.71875 C 68.753906 -30.894531 69.5625 -27.472656 69.5625 -23.453125 C 69.5625 -20.296875 68.769531 -17.207031 67.1875 -14.1875 C 65.601562 -11.175781 63.316406 -8.46875 60.328125 -6.0625 C 57.347656 -3.664062 53.757812 -1.75 49.5625 -0.3125 C 45.363281 1.113281 40.617188 1.828125 35.328125 1.828125 C 31.304688 1.828125 27.46875 1.25 23.8125 0.09375 C 20.164062 -1.0625 16.820312 -2.503906 13.78125 -4.234375 C 10.738281 -5.972656 8.09375 -7.664062 5.84375 -9.3125 L 5.84375 -21.546875 L 6.75 -21.546875 C 6.75 -21.546875 7.21875 -20.8125 8.15625 -19.34375 C 9.101562 -17.882812 10.503906 -16.078125 12.359375 -13.921875 C 14.222656 -11.765625 16.507812 -9.601562 19.21875 -7.4375 C 21.925781 -5.28125 25.054688 -3.46875 28.609375 -2 C 32.171875 -0.539062 36.113281 0.1875 40.4375 0.1875 C 43.78125 0.1875 46.894531 -0.359375 49.78125 -1.453125 C 52.675781 -2.554688 55.203125 -4.050781 57.359375 -5.9375 C 59.523438 -7.820312 61.21875 -9.953125 62.4375 -12.328125 C 63.65625 -14.703125 64.265625 -17.164062 64.265625 -19.71875 C 64.265625 -23.125 63.441406 -26.054688 61.796875 -28.515625 C 60.148438 -30.984375 57.925781 -33.097656 55.125 -34.859375 C 52.332031 -36.628906 49.1875 -38.210938 45.6875 -39.609375 C 42.1875 -41.015625 38.578125 -42.351562 34.859375 -43.625 C 31.148438 -44.90625 27.546875 -46.273438 24.046875 -47.734375 C 20.546875 -49.203125 17.394531 -50.894531 14.59375 -52.8125 C 11.800781 -54.726562 9.582031 -57.039062 7.9375 -59.75 C 6.300781 -62.457031 5.484375 -65.664062 5.484375 -69.375 Z M 5.484375 -69.375 "/></g></g></g></svg>